<?xml version="1.0" encoding="iso-8859-1"?>
<!-- Generator: Adobe Illustrator 19.0.0, SVG Export Plug-In . SVG Version: 6.00 Build 0)  -->
<svg version="1.1" id="Capa_1" xmlns="http://www.w3.org/2000/svg" xmlns:xlink="http://www.w3.org/1999/xlink" x="0px" y="0px"
	 viewBox="0 0 188.135 188.135" style="enable-background:new 0 0 188.135 188.135;" xml:space="preserve">
<path d="M94.068,188.135c-51.869,0-94.067-42.198-94.067-94.068S42.199,0,94.068,0s94.067,42.198,94.067,94.067
	S145.939,188.135,94.068,188.135z M94.068,3C43.854,3,3.001,43.853,3.001,94.067s40.853,91.067,91.067,91.067
	s91.067-40.853,91.067-91.067S144.284,3,94.068,3z M53.635,114.067h3v21h-3V114.067z M72.788,135.088l-0.809-51.496l3-0.047
	l0.809,51.496L72.788,135.088z M91.17,135.069l-0.067-82.5l3-0.002l0.067,82.5L91.17,135.069z M109.636,84.067h3v51h-3V84.067z
	 M128.635,93.067h3v42h-3V93.067z"/>
<g>
</g>
<g>
</g>
<g>
</g>
<g>
</g>
<g>
</g>
<g>
</g>
<g>
</g>
<g>
</g>
<g>
</g>
<g>
</g>
<g>
</g>
<g>
</g>
<g>
</g>
<g>
</g>
<g>
</g>
</svg>
