<?xml version="1.0" encoding="iso-8859-1"?>
<!-- Generator: Adobe Illustrator 19.0.0, SVG Export Plug-In . SVG Version: 6.00 Build 0)  -->
<svg version="1.1" id="Capa_1" xmlns="http://www.w3.org/2000/svg" xmlns:xlink="http://www.w3.org/1999/xlink" x="0px" y="0px"
	 viewBox="0 0 188.135 188.135" style="enable-background:new 0 0 188.135 188.135;" xml:space="preserve">
<g>
	<g id="microphone_1_">
		<path d="M94.067,188.135C42.198,188.135,0,145.937,0,94.067S42.198,0,94.067,0s94.067,42.198,94.067,94.067
			S145.938,188.135,94.067,188.135z M94.067,3C43.853,3,3,43.853,3,94.067s40.853,91.067,91.067,91.067s91.067-40.853,91.067-91.067
			S144.283,3,94.067,3z"/>
		<g>
			<rect x="92.635" y="122.067" width="3" height="33"/>
			<path d="M94.067,123.203c-20.476,0-37.135-17.136-37.135-37.136h3c0,19,15.313,34.136,34.135,34.136s34.135-15.136,34.135-34.136
				h3C131.202,106.067,114.544,123.203,94.067,123.203z"/>
			<path d="M94.135,107.856c-11.304,0-20.5-9.574-20.5-21.343V52.535c0-11.769,9.196-21.343,20.5-21.343s20.5,9.574,20.5,21.343
				v33.979C114.635,98.282,105.438,107.856,94.135,107.856z M94.135,34.192c-9.649,0-17.5,8.229-17.5,18.343v33.979
				c0,10.114,7.851,18.343,17.5,18.343s17.5-8.229,17.5-18.343V52.535C111.635,42.421,103.784,34.192,94.135,34.192z"/>
		</g>
	</g>
</g>
<g>
</g>
<g>
</g>
<g>
</g>
<g>
</g>
<g>
</g>
<g>
</g>
<g>
</g>
<g>
</g>
<g>
</g>
<g>
</g>
<g>
</g>
<g>
</g>
<g>
</g>
<g>
</g>
<g>
</g>
</svg>
