<?xml version="1.0" encoding="iso-8859-1"?>
<!-- Generator: Adobe Illustrator 19.0.0, SVG Export Plug-In . SVG Version: 6.00 Build 0)  -->
<svg version="1.1" id="Capa_1" xmlns="http://www.w3.org/2000/svg" xmlns:xlink="http://www.w3.org/1999/xlink" x="0px" y="0px"
	 viewBox="0 0 188.135 188.135" style="enable-background:new 0 0 188.135 188.135;" xml:space="preserve">
<path id="mute_1_" d="M94.068,188.135c-51.869,0-94.067-42.198-94.067-94.068S42.199,0,94.068,0s94.067,42.198,94.067,94.067
	S145.939,188.135,94.068,188.135z M94.068,3C43.854,3,3.001,43.853,3.001,94.067s40.853,91.067,91.067,91.067
	s91.067-40.853,91.067-91.067S144.284,3,94.068,3z M82.635,128.067h-19v-63h19V128.067z M66.635,125.067h13v-57h-13V125.067z
	 M107.688,143.636l-27.052-17.197v-60.21l27-19.986L107.688,143.636z M83.636,124.79l21.015,13.359l-0.015-2.222V52.196l-21,15.545
	V124.79z M121.676,127.784L68.343,47.137l2.501-1.654l53.333,80.647L121.676,127.784z"/>
<g>
</g>
<g>
</g>
<g>
</g>
<g>
</g>
<g>
</g>
<g>
</g>
<g>
</g>
<g>
</g>
<g>
</g>
<g>
</g>
<g>
</g>
<g>
</g>
<g>
</g>
<g>
</g>
<g>
</g>
</svg>
