<?xml version="1.0" encoding="iso-8859-1"?>
<!-- Generator: Adobe Illustrator 19.0.0, SVG Export Plug-In . SVG Version: 6.00 Build 0)  -->
<svg version="1.1" id="Capa_1" xmlns="http://www.w3.org/2000/svg" xmlns:xlink="http://www.w3.org/1999/xlink" x="0px" y="0px"
	 viewBox="0 0 188.135 188.135" style="enable-background:new 0 0 188.135 188.135;" xml:space="preserve">
<g>
	<g id="playlist_1_">
		<path d="M94.067,188.135C42.198,188.135,0,145.937,0,94.067S42.198,0,94.067,0s94.067,42.198,94.067,94.067
			S145.938,188.135,94.067,188.135z M94.067,3C43.853,3,3,43.853,3,94.067s40.853,91.067,91.067,91.067s91.067-40.853,91.067-91.067
			S144.283,3,94.067,3z"/>
		<g>
			<rect x="70.635" y="53.067" width="64" height="3"/>
			<rect x="70.635" y="76.067" width="64" height="3"/>
			<rect x="70.635" y="100.067" width="64" height="3"/>
			<rect x="70.635" y="123.067" width="64" height="3"/>
			<circle cx="58.636" cy="53.725" r="5.229"/>
			<circle cx="58.636" cy="76.725" r="5.229"/>
			<circle cx="58.636" cy="100.058" r="5.229"/>
			<circle cx="58.636" cy="123.725" r="5.229"/>
		</g>
	</g>
</g>
<g>
</g>
<g>
</g>
<g>
</g>
<g>
</g>
<g>
</g>
<g>
</g>
<g>
</g>
<g>
</g>
<g>
</g>
<g>
</g>
<g>
</g>
<g>
</g>
<g>
</g>
<g>
</g>
<g>
</g>
</svg>
